<svg width="30" height="30" viewBox="0 0 30 30" fill="none" xmlns="http://www.w3.org/2000/svg" class="icon icon-account">
<path d="M5.72687 23.5913C7.22949 22.5556 8.72447 21.7528 10.2118 21.1828C11.6991 20.6125 13.3137 20.3274 15.0556 20.3274C16.7974 20.3274 18.4159 20.6125 19.911 21.1828C21.4059 21.7528 22.9046 22.5556 24.4072 23.5913C25.5011 22.3241 26.3137 20.986 26.8451 19.5769C27.3765 18.1679 27.6422 16.6607 27.6422 15.0555C27.6422 11.5061 26.4318 8.52094 24.0111 6.09999C21.5902 3.67929 18.605 2.46894 15.0556 2.46894C11.5061 2.46894 8.52097 3.67929 6.10002 6.09999C3.67932 8.52094 2.46897 11.5061 2.46897 15.0555C2.46897 16.6607 2.73855 18.1679 3.27771 19.5769C3.81687 20.986 4.63326 22.3241 5.72687 23.5913ZM15.0473 15.909C13.6949 15.909 12.5571 15.4449 11.634 14.5165C10.711 13.5879 10.2494 12.4474 10.2494 11.095C10.2494 9.74232 10.7137 8.60444 11.6423 7.68135C12.5707 6.75826 13.7112 6.29672 15.0638 6.29672C16.4163 6.29672 17.554 6.76102 18.4771 7.68963C19.4002 8.61798 19.8617 9.75849 19.8617 11.1112C19.8617 12.4638 19.3974 13.6016 18.4688 14.5244C17.5405 15.4475 16.4 15.909 15.0473 15.909ZM15.0732 29.3495C13.0919 29.3495 11.2332 28.9762 9.49709 28.2297C7.76075 27.4831 6.24409 26.4602 4.9471 25.161C3.64986 23.862 2.62796 22.3483 1.88142 20.62C1.13487 18.8917 0.761597 17.036 0.761597 15.0529C0.761597 13.0698 1.13487 11.215 1.88142 9.48841C2.62796 7.76185 3.65086 6.24907 4.95011 4.95007C6.2491 3.65083 7.76276 2.62793 9.49108 1.88139C11.2194 1.13484 13.0751 0.761566 15.0582 0.761566C17.0413 0.761566 18.8961 1.13484 20.6227 1.88139C22.3493 2.62793 23.862 3.65083 25.161 4.95007C26.4603 6.24907 27.4832 7.76223 28.2297 9.48954C28.9763 11.2169 29.3495 13.0663 29.3495 15.0379C29.3495 17.0192 28.9763 18.8779 28.2297 20.614C27.4832 22.3504 26.4603 23.867 25.161 25.164C23.862 26.4612 22.3489 27.4831 20.6216 28.2297C18.8943 28.9762 17.0448 29.3495 15.0732 29.3495ZM15.0556 27.6421C16.4541 27.6421 17.8334 27.4198 19.1933 26.9752C20.5532 26.5306 21.834 25.8116 23.0357 24.8183C21.834 23.9349 20.5614 23.25 19.2177 22.7638C17.8744 22.2778 16.487 22.0348 15.0556 22.0348C13.6242 22.0348 12.2343 22.2754 10.8859 22.7566C9.53747 23.2378 8.27208 23.9251 7.08969 24.8183C8.28186 25.8116 9.55791 26.5306 10.9178 26.9752C12.2778 27.4198 13.657 27.6421 15.0556 27.6421ZM15.0574 14.202C15.957 14.202 16.698 13.91 17.2805 13.326C17.8633 12.7422 18.1547 12.0005 18.1547 11.101C18.1547 10.2015 17.8627 9.46045 17.2787 8.87791C16.6949 8.29537 15.9532 8.00409 15.0537 8.00409C14.1542 8.00409 13.4131 8.29599 12.8306 8.87979C12.2478 9.46384 11.9564 10.2056 11.9564 11.1051C11.9564 12.0047 12.2484 12.7457 12.8325 13.3282C13.4163 13.9108 14.1579 14.202 15.0574 14.202Z" fill="#1C1B1F"/>
</svg>
