<svg width="23" height="30" viewBox="0 0 23 30" fill="none" xmlns="http://www.w3.org/2000/svg" class="icon icon-cart-empty">
<path d="M2.27534 29.3495C1.68527 29.3495 1.17608 29.1353 0.747762 28.707C0.319445 28.2787 0.105286 27.7695 0.105286 27.1795V8.95013C0.105286 8.36007 0.319445 7.85087 0.747762 7.42256C1.17608 6.99424 1.68527 6.78008 2.27534 6.78008H6.02261V6.12895C6.02261 4.62633 6.54146 3.35617 7.57915 2.31848C8.61709 1.28054 9.88738 0.761566 11.39 0.761566C12.8926 0.761566 14.1629 1.28054 15.2008 2.31848C16.2385 3.35617 16.7574 4.62633 16.7574 6.12895V6.78008H20.5047C21.0947 6.78008 21.6039 6.99424 22.0322 7.42256C22.4606 7.85087 22.6747 8.36007 22.6747 8.95013V27.1795C22.6747 27.7695 22.4606 28.2787 22.0322 28.707C21.6039 29.1353 21.0947 29.3495 20.5047 29.3495H2.27534ZM2.27534 27.6421H20.5047C20.6203 27.6421 20.7263 27.594 20.8229 27.4977C20.9192 27.4011 20.9673 27.2951 20.9673 27.1795V8.95013C20.9673 8.83453 20.9192 8.72845 20.8229 8.6319C20.7263 8.5356 20.6203 8.48746 20.5047 8.48746H16.7574V12.1475C16.7574 12.39 16.6751 12.5928 16.5106 12.7561C16.3459 12.9196 16.1414 13.0013 15.8971 13.0013C15.6529 13.0013 15.4506 12.9196 15.2904 12.7561C15.1304 12.5928 15.0504 12.39 15.0504 12.1475V8.48746H7.72962V12.1475C7.72962 12.39 7.64736 12.5928 7.48286 12.7561C7.3181 12.9196 7.11359 13.0013 6.86934 13.0013C6.62509 13.0013 6.42285 12.9196 6.2626 12.7561C6.10261 12.5928 6.02261 12.39 6.02261 12.1475V8.48746H2.27534C2.15973 8.48746 2.05365 8.5356 1.95711 8.6319C1.86081 8.72845 1.81266 8.83453 1.81266 8.95013V27.1795C1.81266 27.2951 1.86081 27.4011 1.95711 27.4977C2.05365 27.594 2.15973 27.6421 2.27534 27.6421ZM7.72962 6.78008H15.0504V6.12895C15.0504 5.09903 14.6978 4.23149 13.9926 3.52632C13.2877 2.8214 12.4202 2.46894 11.39 2.46894C10.3598 2.46894 9.49229 2.8214 8.78737 3.52632C8.0822 4.23149 7.72962 5.09903 7.72962 6.12895V6.78008Z" fill="#1C1B1F"/>
</svg>
