<svg width="20" height="20" viewBox="0 0 20 20" fill="none" xmlns="http://www.w3.org/2000/svg" class="icon icon-instagram">
<path d="M9.50742 4.69111C6.8101 4.69111 4.63443 6.89541 4.63443 9.62822C4.63443 12.361 6.8101 14.5653 9.50742 14.5653C12.2047 14.5653 14.3804 12.361 14.3804 9.62822C14.3804 6.89541 12.2047 4.69111 9.50742 4.69111ZM9.50742 12.838C7.76434 12.838 6.33934 11.3985 6.33934 9.62822C6.33934 7.85791 7.7601 6.41846 9.50742 6.41846C11.2547 6.41846 12.6755 7.85791 12.6755 9.62822C12.6755 11.3985 11.2505 12.838 9.50742 12.838ZM15.7164 4.48916C15.7164 5.12939 15.2074 5.64072 14.5797 5.64072C13.9478 5.64072 13.4431 5.1251 13.4431 4.48916C13.4431 3.85322 13.9521 3.3376 14.5797 3.3376C15.2074 3.3376 15.7164 3.85322 15.7164 4.48916ZM18.9438 5.65791C18.8717 4.11533 18.5239 2.74893 17.4085 1.62314C16.2974 0.497363 14.9487 0.14502 13.4262 0.0676758C11.857 -0.0225586 7.15363 -0.0225586 5.58443 0.0676758C4.06613 0.140723 2.71747 0.493066 1.60206 1.61885C0.486663 2.74463 0.143136 4.11103 0.0667969 5.65361C-0.0222656 7.24346 -0.0222656 12.0087 0.0667969 13.5985C0.138895 15.1411 0.486663 16.5075 1.60206 17.6333C2.71747 18.7591 4.06189 19.1114 5.58443 19.1888C7.15363 19.279 11.857 19.279 13.4262 19.1888C14.9487 19.1157 16.2974 18.7634 17.4085 17.6333C18.5197 16.5075 18.8675 15.1411 18.9438 13.5985C19.0329 12.0087 19.0329 7.24775 18.9438 5.65791ZM16.9166 15.3044C16.5858 16.1466 15.9454 16.7954 15.1099 17.1349C13.8588 17.6376 10.89 17.5216 9.50742 17.5216C8.12483 17.5216 5.15184 17.6333 3.90497 17.1349C3.07372 16.7997 2.43332 16.1509 2.09827 15.3044C1.60206 14.0368 1.71657 11.029 1.71657 9.62822C1.71657 8.22744 1.60631 5.21533 2.09827 3.95205C2.42907 3.10986 3.06948 2.46104 3.90497 2.12158C5.15608 1.61885 8.12483 1.73486 9.50742 1.73486C10.89 1.73486 13.863 1.62314 15.1099 2.12158C15.9411 2.45674 16.5815 3.10557 16.9166 3.95205C17.4128 5.21963 17.2983 8.22744 17.2983 9.62822C17.2983 11.029 17.4128 14.0411 16.9166 15.3044Z" fill="#0A589F"/>
</svg>

