<svg width="20" height="22" viewBox="0 0 20 22" fill="none" xmlns="http://www.w3.org/2000/svg" class="icon icon-tiktok">
<path d="M19.25 9.01914C17.3576 9.02319 15.5118 8.43248 13.9734 7.33047V15.0133C13.973 16.4362 13.5381 17.825 12.727 18.9941C11.9158 20.1631 10.7671 21.0566 9.43434 21.5551C8.10161 22.0536 6.64846 22.1332 5.26923 21.7834C3.89 21.4337 2.65044 20.6711 1.71634 19.5978C0.782238 18.5244 0.198126 17.1914 0.0421242 15.7771C-0.113878 14.3628 0.165668 12.9346 0.843374 11.6834C1.52108 10.4323 2.56464 9.41791 3.83448 8.77593C5.10431 8.13395 6.5399 7.895 7.94922 8.09102V11.9539C7.30481 11.751 6.61277 11.757 5.97193 11.9709C5.33108 12.1847 4.7742 12.5956 4.38079 13.1449C3.98739 13.6941 3.77757 14.3536 3.78131 15.0292C3.78504 15.7048 4.00213 16.3619 4.40159 16.9067C4.80104 17.4516 5.36243 17.8563 6.0056 18.0631C6.64877 18.2699 7.34083 18.2682 7.98297 18.0582C8.6251 17.8482 9.18448 17.4407 9.58123 16.8939C9.97798 16.3471 10.1918 15.6889 10.1922 15.0133V0H13.9734C13.9713 0.319801 13.9986 0.639119 14.0551 0.953906C14.1866 1.65559 14.4598 2.32308 14.858 2.9156C15.2562 3.50811 15.7711 4.01321 16.3711 4.4C17.2252 4.96411 18.2264 5.26447 19.25 5.26367V9.01914Z" fill="#0A589F"/>
</svg>
