<?xml version="1.0" encoding="UTF-8"?>
<svg width="14px" height="17px" viewBox="0 0 14 17" version="1.1" xmlns="http://www.w3.org/2000/svg" xmlns:xlink="http://www.w3.org/1999/xlink">
    <g id="Page-1" stroke="none" stroke-width="1" fill="none" fill-rule="evenodd">
        <g id="Mobile-Inline-Cart" transform="translate(-116.000000, -700.000000)">
            <g id="inline_cart">
                <g id="subtotal" transform="translate(0.000000, 546.000000)">
                    <path d="M123.814513,166.655556 L123.814513,168.298889 C123.814513,168.733333 123.446087,169.092222 123.000097,169.092222 C122.554107,169.092222 122.185681,168.733333 122.185681,168.298889 L122.185681,166.655556 C121.817255,166.41 121.565174,165.975556 121.565174,165.503333 C121.565174,164.728889 122.205072,164.105556 123.000097,164.105556 C123.794928,164.105556 124.43502,164.728889 124.43502,165.503333 C124.43502,165.994444 124.182745,166.41 123.814513,166.655556 L123.814513,166.655556 Z M119.684262,159.421111 C119.684262,157.645556 121.177357,156.191111 123.000097,156.191111 C124.822837,156.191111 126.315738,157.645556 126.315738,159.421111 L126.315738,161.706667 L119.684262,161.706667 L119.684262,159.421111 Z M129.205169,161.706667 L128.565271,161.706667 L128.565271,159.421111 C128.565271,156.436667 126.063851,154 123.000097,154 C119.936343,154 117.434923,156.436667 117.434923,159.421111 L117.434923,161.706667 L116.795025,161.706667 C116.368426,161.706667 116,162.046667 116,162.481111 L116,170.225556 C116,170.641111 116.349035,171 116.795025,171 L129.205169,171 C129.631768,171 130,170.66 130,170.225556 L130,162.481111 C130,162.065556 129.651159,161.706667 129.205169,161.706667 L129.205169,161.706667 Z" id="Fill-1" fill="#FFFFFF"></path>
                </g>
            </g>
        </g>
    </g>
</svg>